<svg xmlns="http://www.w3.org/2000/svg" viewBox="0 0 64 64" width="64" height="64">
  <g transform="translate(0 -1)">
    <rect x="3.5" y="8" width="48.5" height="44" rx="2" fill="#fff" stroke="#666" stroke-width="4"/>
    <path d="M3.5 19H52" stroke="#666" stroke-width="3"/>
    <path d="M11 4v8M22 4v8M33 4v8M44 4v8M21 28.5h2M32 28.5h2M43 28.5h2M10 36.5h2M21 36.5h2M32 36.5h2M43 36.5h2M10 44.5h2M21 44.5h2" stroke="#666" stroke-width="3" stroke-linecap="round"/>
    <circle cx="22" cy="36.5" r="5" fill="#1d83d4"/>
  </g>
  <path transform="scale(1.5)" d="M16,34 h5.5 l2,3 l2.75,-5.5 l3,8 l2.75,-5.5 h8" stroke="#fff" stroke-width="8" stroke-linecap="round" fill="none" stroke-linejoin="round"/>
  <path transform="scale(1.5)" d="M16,34 h5.5 l2,3 l2.75,-5.5 l3,8 l2.75,-5.5 h8" stroke="#1d83d4" stroke-width="2.5" stroke-linecap="round" fill="none" stroke-linejoin="round"/>
</svg>
