<svg xmlns="http://www.w3.org/2000/svg" viewBox="0 0 64 64" width="64" height="64">
  <g transform="translate(0 -1)">
    <rect x="3.5" y="8" width="48.5" height="44" rx="2" fill="#fff" stroke="#666" stroke-width="4"/>
    <path d="M3.5 19H52" stroke="#666" stroke-width="3"/>
    <path d="M11 4v8M22 4v8M33 4v8M44 4v8M21 28.5h2M32 28.5h2M43 28.5h2M10 36.5h2M21 36.5h2M32 36.5h2M43 36.5h2M10 44.5h2M21 44.5h2" stroke="#666" stroke-width="3" stroke-linecap="round"/>
    <circle cx="22" cy="36.5" r="5" fill="#1d83d4"/>
  </g>
  <circle cx="46" cy="46" r="17" fill="#1d83d4"/>
  <circle cx="46" cy="46" r="13" fill="#fff"/>
  <path fill="#1d83d4" d="M46.1 40.4a5 5 0 0 0-3.7 1.5 6.3 6.3 0 0 0-2 4.5c0 1-.6 1.6-1.5 1.6s-1.5-.7-1.5-1.7a9 9 0 0 1 7.4-8.9l2.4-.2v-.4c0-.7.5-1.2 1.1-1.4.5-.2 1.3.1 1.6.6l1.7 3.6c.3.6-.1 1.5-.7 1.8l-2.6 1.1c-1.5.5-2.5-.5-2.2-2.1zM44.4 52.3c1.9.5 3.5.3 5-.8 1.3-1 2.1-2.3 2.4-3.9.2-.8.8-1.3 1.5-1.3.6 0 1.4.5 1.5 1.1.1.5 0 1.1-.1 1.5a8.8 8.8 0 0 1-7.2 6.6c-1.3.2-2.7.2-4-.3-.4-.1-.6-.1-.9.2-.7.9-2.2.7-2.6-.4-.4-1-.6-2.1-.9-3.1-.2-1 .3-1.7 1.3-1.9l2.8-.5c.7-.1 1.3.2 1.6.7.4.8.3 1.4-.4 2.1z"/>
</svg>
