<svg xmlns="http://www.w3.org/2000/svg" viewBox="0 0 64 64" width="64" height="64">
  <g transform="translate(6 -1)">
    <rect x="3.5" y="8" width="48.5" height="44" rx="2" fill="#fff" stroke="#666" stroke-width="4"/>
    <path d="M3.5 19H52" stroke="#666" stroke-width="3"/>
    <path d="M11 4v8M22 4v8M33 4v8M44 4v8M21 28.5h2M32 28.5h2M43 28.5h2M10 36.5h2M21 36.5h2M32 36.5h2M43 36.5h2M10 44.5h2M21 44.5h2" stroke="#666" stroke-width="3" stroke-linecap="round"/>
    <path d="M32,44.5 h2" stroke="#666" stroke-width="3" stroke-linecap="round"/>
    <circle cx="22" cy="36.5" r="5" fill="#1d83d4"/>
  </g>
	<g transform="translate(-3.1 0.75) scale(1.05)" fill="#1d83d4">
		<path d="M10,39c2.8,0,5.5-0.1,8.3,0c1.1,0.1,2.2,0.6,3.2,1c3.2,1.6,6.1,3.7,8.8,6c1.5,1.3,3.1,2.1,5,2.6c2.2,0.6,4.4,1.3,6.6,2
			c0.2,0,0.3,0.1,0.5,0.1c1.1,0.4,1.5,1,1.5,2.1c0.1,1.5,0,2.2-2.1,1.8c-2.7-0.6-5.5-1.1-8.3-1.7c-0.3-0.1-0.5-0.2-0.7-0.3
			c-2-1.1-3.9-2.2-5.9-3.4c-0.2-0.1-0.3-0.2-0.5-0.3c-0.6-0.3-1.1-0.1-1.4,0.4c-0.3,0.5-0.1,1,0.4,1.4c1.3,0.8,2.7,1.5,4,2.3
			c2,1.3,4.2,2.1,6.7,2.5c2.1,0.3,4.2,0.8,6.2,1.2c1.3,0.3,2.5-0.3,3.1-1.4c0.2-0.4,0.4-0.5,0.8-0.5c4.1,0,8.2,0,12.3,0
			c1,0,1.3,0.3,1.3,1.3c0,0.4,0,0.8,0,1.2c0,1.2-0.3,1.5-1.5,1.5c-1.1,0-2.1,0-3.2,0c-6.4,0-12.9,0-19.3,0c-2.2,0-4.4-0.4-6.5-0.8
			c-5.3-1-10.7-2.1-16-3.1c-1.1-0.2-2.3,0-3.5,0C10,49.7,10,44.4,10,39z" stroke="#fff" stroke-width="3"/>
		<path d="M10,39c2.8,0,5.5-0.1,8.3,0c1.1,0.1,2.2,0.6,3.2,1c3.2,1.6,6.1,3.7,8.8,6c1.5,1.3,3.1,2.1,5,2.6c2.2,0.6,4.4,1.3,6.6,2
			c0.2,0,0.3,0.1,0.5,0.1c1.1,0.4,1.5,1,1.5,2.1c0.1,1.5,0,2.2-2.1,1.8c-2.7-0.6-5.5-1.1-8.3-1.7c-0.3-0.1-0.5-0.2-0.7-0.3
			c-2-1.1-3.9-2.2-5.9-3.4c-0.2-0.1-0.3-0.2-0.5-0.3c-0.6-0.3-1.1-0.1-1.4,0.4c-0.3,0.5-0.1,1,0.4,1.4c1.3,0.8,2.7,1.5,4,2.3
			c2,1.3,4.2,2.1,6.7,2.5c2.1,0.3,4.2,0.8,6.2,1.2c1.3,0.3,2.5-0.3,3.1-1.4c0.2-0.4,0.4-0.5,0.8-0.5c4.1,0,8.2,0,12.3,0
			c1,0,1.3,0.3,1.3,1.3c0,0.4,0,0.8,0,1.2c0,1.2-0.3,1.5-1.5,1.5c-1.1,0-2.1,0-3.2,0c-6.4,0-12.9,0-19.3,0c-2.2,0-4.4-0.4-6.5-0.8
			c-5.3-1-10.7-2.1-16-3.1c-1.1-0.2-2.3,0-3.5,0C10,49.7,10,44.4,10,39z"/>
		<rect x="4.5" y="37" width="4" height="20" rx="1" stroke="#fff" stroke-width="3"/>
		<rect x="4.5" y="37" width="4" height="20" rx="1" />
	</g>
</svg>
