<svg version="1.1" xmlns="http://www.w3.org/2000/svg" width="64" height="64" viewBox="0 0 64 64">
	<circle cx="32" cy="32" r="32" fill="#666" />
	<circle cx="32" cy="32" r="26" fill="#fff" />
	<g transform="scale(2) translate(-30 -30.25)">
		<path fill="#1d83d4" d="M46.1,40.4c-1.5,0-2.7,0.5-3.7,1.5c-1.3,1.2-1.9,2.7-2,4.5c0,1-0.6,1.6-1.5,1.6
			c-0.9,0-1.5-0.7-1.5-1.7c0-4.3,3.1-8.1,7.4-8.9c0.8-0.1,1.6-0.1,2.4-0.2c0-0.1,0-0.2,0-0.4c0-0.7,0.5-1.2,1.1-1.4
			c0.5-0.2,1.3,0.1,1.6,0.6c0.6,1.2,1.2,2.4,1.7,3.6c0.3,0.6-0.1,1.5-0.7,1.8c-0.8,0.4-1.7,0.8-2.6,1.1C46.8,43,45.8,42,46.1,40.4z"
			/>
		<path fill="#1d83d4" d="M44.4,52.3c1.9,0.5,3.5,0.3,5-0.8c1.3-1,2.1-2.3,2.4-3.9c0.2-0.8,0.8-1.3,1.5-1.3
			c0.6,0,1.4,0.5,1.5,1.1c0.1,0.5,0,1.1-0.1,1.5c-1.1,3.6-3.4,5.9-7.2,6.6c-1.3,0.2-2.7,0.2-4-0.3c-0.4-0.1-0.6-0.1-0.9,0.2
			c-0.7,0.9-2.2,0.7-2.6-0.4c-0.4-1-0.6-2.1-0.9-3.1c-0.2-1,0.3-1.7,1.3-1.9c0.9-0.2,1.8-0.3,2.8-0.5c0.7-0.1,1.3,0.2,1.6,0.7
			C45.2,51,45.1,51.6,44.4,52.3z"/>
	</g>
</svg>
